<svg width="185" height="44" viewBox="0 0 185 44" fill="none" xmlns="http://www.w3.org/2000/svg">
<rect x="0.5" y="0.5" width="184" height="43" rx="2.5" stroke="#E5E4E5"/>
<path d="M18.5 14C17.2335 14 16.2059 15.0384 16.2059 16.3182C16.2059 17.598 17.2335 18.6364 18.5 18.6364C19.7665 18.6364 20.7941 17.598 20.7941 16.3182C20.7941 15.0384 19.7665 14 18.5 14ZM18.5 19.4091C17.1394 19.4091 15.2754 19.8075 15.2754 19.8075L15.2679 19.8136C14.8945 19.8709 14.5824 20.1094 14.4196 20.4384L14.4121 20.4444L12.6124 23.7406V23.7421C12.4705 23.9353 12.3824 24.1722 12.3824 24.4318C12.3824 25.0717 12.8961 25.5909 13.5294 25.5909C13.6325 25.5909 13.731 25.5728 13.8266 25.5471L13.8281 25.5502L15.4412 25.1638V25.9305C15.4412 26.4587 12.7811 28.1038 12.7811 28.1038L12.7826 28.1083C12.3002 28.3815 12.0015 28.8961 12 29.4545C12 30.3088 12.6841 31 13.5294 31H15.7324C15.5487 30.7238 15.4412 30.3918 15.4412 30.0341C15.4412 29.2161 16.0162 28.5007 16.8078 28.3317L20.3281 27.5333C20.5342 27.4865 20.7389 27.6163 20.7837 27.8246C20.83 28.0328 20.7015 28.2396 20.4954 28.2864L16.9691 29.0878C16.524 29.1814 16.2059 29.5798 16.2059 30.0341C16.2059 30.5668 16.6345 31 17.1618 31H23.4706C24.3159 31 25 30.3088 25 29.4545C25 28.9037 24.7073 28.3936 24.2353 28.1189L24.2368 28.1128C24.2368 28.1128 21.5588 26.3923 21.5588 25.8988V25.1638L23.1719 25.5502L23.1734 25.5471C23.269 25.5728 23.3675 25.5909 23.4706 25.5909C24.1039 25.5909 24.6176 25.0717 24.6176 24.4318C24.6176 24.1722 24.5295 23.9353 24.3876 23.7421L24.3891 23.7406L22.5879 20.4444L22.5804 20.4384C22.4176 20.1094 22.1055 19.8709 21.7321 19.8136L21.7246 19.8075C21.7246 19.8075 19.8606 19.4091 18.5 19.4091ZM18.5 20.1818C18.7001 20.1818 19.1617 20.1818 19.5933 22.2042L21.6798 22.906C21.8799 22.9739 21.9875 23.1927 21.9218 23.395C21.868 23.5565 21.7186 23.6591 21.5588 23.6591C21.5185 23.6591 21.4782 23.6515 21.4378 23.6395L19.1437 22.8667C19.0138 22.823 18.9167 22.7113 18.8898 22.5755C18.7838 22.0427 18.6284 21.4994 18.5 21.1779C18.3701 21.4994 18.2162 22.0427 18.1102 22.5755C18.0833 22.7113 17.9862 22.823 17.8563 22.8667L15.5622 23.6395C15.3605 23.7074 15.1455 23.5972 15.0782 23.395C15.011 23.1927 15.1201 22.9739 15.3202 22.906L17.4052 22.2042C17.8369 20.1818 18.2984 20.1818 18.5 20.1818Z" fill="#119F39"/>
<rect x="36" y="13" width="127" height="12" rx="2" fill="#E5E4E5"/>
<rect x="36" y="29" width="66" height="6" rx="2" fill="#E5E4E5"/>
</svg>
