<svg width="185" height="44" viewBox="0 0 185 44" fill="none" xmlns="http://www.w3.org/2000/svg">
<rect x="0.5" y="0.5" width="184" height="43" rx="2.5" stroke="#E5E4E5"/>
<path d="M20.1634 17.3488C21.1307 17.3488 21.9222 16.5953 21.9222 15.6744C21.9222 14.7535 21.1307 14 20.1634 14C19.1961 14 18.4046 14.7535 18.4046 15.6744C18.4046 16.5953 19.1961 17.3488 20.1634 17.3488ZM17.3757 27.3953L17.877 25.3023L19.7237 26.9767V31.1628C19.7237 31.6233 20.1194 32 20.6031 32C21.0867 32 21.4825 31.6233 21.4825 31.1628V26.4409C21.4825 25.9805 21.289 25.5451 20.9372 25.227L19.6358 24.0465L20.1634 21.5349C21.1043 22.573 22.4674 23.3181 23.9975 23.5526C24.5251 23.6279 25 23.226 25 22.7153C25 22.3051 24.6834 21.9619 24.2525 21.8949C22.9159 21.6856 21.8078 20.9321 21.2186 19.9442L20.3393 18.6047C19.9875 18.1023 19.4599 17.7674 18.8443 17.7674C18.5805 17.7674 18.4046 17.8512 18.1408 17.8512L14.6408 19.2577C13.9901 19.5256 13.568 20.1284 13.568 20.8065V22.7907C13.568 23.2512 13.9637 23.6279 14.4474 23.6279C14.931 23.6279 15.3268 23.2512 15.3268 22.7907V20.7814L16.9097 20.1953L15.5026 26.9767L12.0555 26.307C11.5806 26.2149 11.1145 26.5079 11.0178 26.96V26.9935C10.921 27.4456 11.2288 27.8893 11.7037 27.9814L15.318 28.6679C16.2501 28.8437 17.1647 28.2828 17.3757 27.3953Z" fill="#4469ED"/>
<rect x="36" y="11" width="127" height="12" rx="2" fill="#E5E4E5"/>
<rect x="36" y="27" width="66" height="6" rx="2" fill="#E5E4E5"/>
</svg>
