<svg width="185" height="44" viewBox="0 0 185 44" fill="none" xmlns="http://www.w3.org/2000/svg">
<rect x="0.5" y="0.5" width="184" height="43" rx="2.5" stroke="#E5E4E5"/>
<path d="M21.4623 14V15.8425L19.9889 18.1911L23.3082 20.2615L23.9235 18.9133H25.7694C25.8782 18.9131 25.985 18.8842 26.079 18.8294C26.1729 18.7746 26.2506 18.6959 26.3042 18.6014L26.309 18.593C26.3196 18.5739 26.3293 18.5543 26.3378 18.5342L26.9279 17.3599V17.3587C26.9751 17.27 26.9999 17.1712 27 17.0708C27 16.9514 26.965 16.8345 26.8995 16.7346C26.834 16.6347 26.7407 16.556 26.6311 16.5082V16.507L25.1541 15.8425C25.1541 15.8425 24.9955 15.2283 24.0954 15.2283H22.6929C22.6929 15.2283 22.3853 14.3243 21.4623 14ZM11.5899 18.2907C11.4988 18.2945 11.4097 18.3184 11.329 18.3608C11.2483 18.4031 11.178 18.4628 11.1233 18.5356C11.0685 18.6084 11.0307 18.6924 11.0124 18.7816C10.9942 18.8707 10.996 18.9628 11.0178 19.0512C11.2516 20.0612 11.9095 20.6447 12.4648 20.9752C12.3522 21.2128 12.2711 21.4679 12.2448 21.7429C12.2328 21.8683 12.2422 21.9886 12.2484 22.11C12.2373 22.1697 12.232 22.2304 12.2328 22.2911C12.2328 23.2107 12.3921 23.8541 12.3938 24.2451C12.3956 24.6362 12.3748 24.8328 11.8603 25.3931C11.7042 25.563 11.6176 25.7851 11.6175 26.0156V29.0468C11.6158 29.1689 11.6384 29.2901 11.684 29.4034C11.7296 29.5167 11.7973 29.6198 11.8832 29.7067C11.969 29.7937 12.0714 29.8627 12.1842 29.9098C12.2971 29.9569 12.4181 29.9812 12.5405 29.9812C12.6628 29.9812 12.7839 29.9569 12.8967 29.9098C13.0095 29.8627 13.1119 29.7937 13.1977 29.7067C13.2836 29.6198 13.3513 29.5167 13.3969 29.4034C13.4425 29.2901 13.4651 29.1689 13.4634 29.0468V26.5794C13.4634 26.5794 14.9018 25.6856 15.5785 24.4407H20.847V25.9377C20.8472 25.9977 20.8532 26.0575 20.865 26.1164L21.4803 29.2256C21.5001 29.3477 21.5443 29.4646 21.6103 29.5693C21.6763 29.6741 21.7628 29.7644 21.8646 29.8351C21.9663 29.9057 22.0813 29.9552 22.2026 29.9805C22.3239 30.0058 22.4491 30.0065 22.5707 29.9825C22.6923 29.9585 22.8078 29.9102 22.9104 29.8407C23.0129 29.7712 23.1003 29.6817 23.1675 29.5777C23.2346 29.4737 23.2801 29.3573 23.3012 29.2354C23.3222 29.1135 23.3185 28.9886 23.2902 28.8681L22.6929 25.8477V24.2703C23.0594 24.0577 23.3082 23.6662 23.3082 23.2123V21.7105L19.1537 19.1184C18.7606 19.3769 18.2958 19.5274 17.803 19.5274H14.7998C14.2323 19.5274 13.6978 19.7183 13.2603 20.0324C12.908 19.8679 12.3871 19.5094 12.2172 18.7753C12.1867 18.6337 12.107 18.5073 11.9922 18.4186C11.8774 18.33 11.7349 18.2846 11.5899 18.2907ZM16.2491 25.669C15.8165 26.2524 15.3065 26.7262 14.8887 27.064L15.3285 29.2304C15.4165 29.667 15.8016 29.9681 16.2311 29.9681C16.292 29.9681 16.354 29.9624 16.4161 29.9501C16.9151 29.8494 17.2387 29.362 17.1372 28.8633L16.4978 25.669H16.2491Z" fill="#E0861D"/>
<rect x="36" y="13" width="127" height="12" rx="2" fill="#E5E4E5"/>
<rect x="36" y="29" width="66" height="6" rx="2" fill="#E5E4E5"/>
</svg>
